<svg width="95" height="67" viewBox="0 0 95 67" fill="none" xmlns="http://www.w3.org/2000/svg">
<g clip-path="url(#clip0_1_783)">
<path d="M1.87093 66.5375C3.17132 66.5375 4.2255 65.484 4.2255 64.1846C4.2255 62.8852 3.17132 61.8318 1.87093 61.8318C0.570533 61.8318 -0.483643 62.8852 -0.483643 64.1846C-0.483643 65.484 0.570533 66.5375 1.87093 66.5375Z" stroke="#101011" stroke-width="1.1786" stroke-miterlimit="10" stroke-linecap="round" stroke-linejoin="round"/>
<path d="M16.9242 66.5375C18.2245 66.5375 19.2787 65.484 19.2787 64.1846C19.2787 62.8852 18.2245 61.8318 16.9242 61.8318C15.6238 61.8318 14.5696 62.8852 14.5696 64.1846C14.5696 65.484 15.6238 66.5375 16.9242 66.5375Z" stroke="#101011" stroke-width="1.1786" stroke-miterlimit="10" stroke-linecap="round" stroke-linejoin="round"/>
<path d="M31.9774 66.5375C33.2778 66.5375 34.3319 65.484 34.3319 64.1846C34.3319 62.8852 33.2778 61.8318 31.9774 61.8318C30.677 61.8318 29.6228 62.8852 29.6228 64.1846C29.6228 65.484 30.677 66.5375 31.9774 66.5375Z" stroke="#101011" stroke-width="1.1786" stroke-miterlimit="10" stroke-linecap="round" stroke-linejoin="round"/>
<path d="M47.0228 66.5375C48.3232 66.5375 49.3774 65.484 49.3774 64.1846C49.3774 62.8852 48.3232 61.8318 47.0228 61.8318C45.7224 61.8318 44.6682 62.8852 44.6682 64.1846C44.6682 65.484 45.7224 66.5375 47.0228 66.5375Z" stroke="#101011" stroke-width="1.1786" stroke-miterlimit="10" stroke-linecap="round" stroke-linejoin="round"/>
<path d="M64.4306 64.1846C64.4306 65.4847 63.377 66.5375 62.076 66.5375C60.775 66.5375 59.7214 65.4847 59.7214 64.1846C59.7214 62.8846 60.775 61.8318 62.076 61.8318C63.377 61.8318 64.4306 62.8846 64.4306 64.1846Z" stroke="#101011" stroke-width="1.1786" stroke-miterlimit="10" stroke-linecap="round" stroke-linejoin="round"/>
<path d="M77.1292 66.5375C78.4296 66.5375 79.4838 65.484 79.4838 64.1846C79.4838 62.8852 78.4296 61.8318 77.1292 61.8318C75.8288 61.8318 74.7747 62.8852 74.7747 64.1846C74.7747 65.484 75.8288 66.5375 77.1292 66.5375Z" stroke="#101011" stroke-width="1.1786" stroke-miterlimit="10" stroke-linecap="round" stroke-linejoin="round"/>
<path d="M92.1746 66.5375C93.475 66.5375 94.5292 65.484 94.5292 64.1846C94.5292 62.8852 93.475 61.8318 92.1746 61.8318C90.8742 61.8318 89.8201 62.8852 89.8201 64.1846C89.8201 65.484 90.8742 66.5375 92.1746 66.5375Z" stroke="#101011" stroke-width="1.1786" stroke-miterlimit="10" stroke-linecap="round" stroke-linejoin="round"/>
<path d="M1.87093 52.3407C3.17132 52.3407 4.2255 51.2873 4.2255 49.9878C4.2255 48.6884 3.17132 47.635 1.87093 47.635C0.570533 47.635 -0.483643 48.6884 -0.483643 49.9878C-0.483643 51.2873 0.570533 52.3407 1.87093 52.3407Z" stroke="#101011" stroke-width="1.1786" stroke-miterlimit="10" stroke-linecap="round" stroke-linejoin="round"/>
<path d="M16.9242 52.3407C18.2245 52.3407 19.2787 51.2873 19.2787 49.9878C19.2787 48.6884 18.2245 47.635 16.9242 47.635C15.6238 47.635 14.5696 48.6884 14.5696 49.9878C14.5696 51.2873 15.6238 52.3407 16.9242 52.3407Z" stroke="#101011" stroke-width="1.1786" stroke-miterlimit="10" stroke-linecap="round" stroke-linejoin="round"/>
<path d="M31.9774 52.3407C33.2778 52.3407 34.3319 51.2873 34.3319 49.9878C34.3319 48.6884 33.2778 47.635 31.9774 47.635C30.677 47.635 29.6228 48.6884 29.6228 49.9878C29.6228 51.2873 30.677 52.3407 31.9774 52.3407Z" stroke="#101011" stroke-width="1.1786" stroke-miterlimit="10" stroke-linecap="round" stroke-linejoin="round"/>
<path d="M47.0228 52.3407C48.3232 52.3407 49.3774 51.2873 49.3774 49.9878C49.3774 48.6884 48.3232 47.635 47.0228 47.635C45.7224 47.635 44.6682 48.6884 44.6682 49.9878C44.6682 51.2873 45.7224 52.3407 47.0228 52.3407Z" stroke="#101011" stroke-width="1.1786" stroke-miterlimit="10" stroke-linecap="round" stroke-linejoin="round"/>
<path d="M64.4306 49.9878C64.4306 51.2879 63.377 52.3407 62.076 52.3407C60.775 52.3407 59.7214 51.2879 59.7214 49.9878C59.7214 48.6878 60.775 47.635 62.076 47.635C63.377 47.635 64.4306 48.6878 64.4306 49.9878Z" stroke="#101011" stroke-width="1.1786" stroke-miterlimit="10" stroke-linecap="round" stroke-linejoin="round"/>
<path d="M77.1292 52.3407C78.4296 52.3407 79.4838 51.2873 79.4838 49.9878C79.4838 48.6884 78.4296 47.635 77.1292 47.635C75.8288 47.635 74.7747 48.6884 74.7747 49.9878C74.7747 51.2873 75.8288 52.3407 77.1292 52.3407Z" stroke="#101011" stroke-width="1.1786" stroke-miterlimit="10" stroke-linecap="round" stroke-linejoin="round"/>
<path d="M92.1746 52.3407C93.475 52.3407 94.5292 51.2873 94.5292 49.9878C94.5292 48.6884 93.475 47.635 92.1746 47.635C90.8742 47.635 89.8201 48.6884 89.8201 49.9878C89.8201 51.2873 90.8742 52.3407 92.1746 52.3407Z" stroke="#101011" stroke-width="1.1786" stroke-miterlimit="10" stroke-linecap="round" stroke-linejoin="round"/>
<path d="M1.87093 38.144C3.17132 38.144 4.2255 37.0906 4.2255 35.7912C4.2255 34.4917 3.17132 33.4384 1.87093 33.4384C0.570533 33.4384 -0.483643 34.4917 -0.483643 35.7912C-0.483643 37.0906 0.570533 38.144 1.87093 38.144Z" stroke="#101011" stroke-width="1.1786" stroke-miterlimit="10" stroke-linecap="round" stroke-linejoin="round"/>
<path d="M16.9242 38.144C18.2245 38.144 19.2787 37.0906 19.2787 35.7912C19.2787 34.4917 18.2245 33.4384 16.9242 33.4384C15.6238 33.4384 14.5696 34.4917 14.5696 35.7912C14.5696 37.0906 15.6238 38.144 16.9242 38.144Z" stroke="#101011" stroke-width="1.1786" stroke-miterlimit="10" stroke-linecap="round" stroke-linejoin="round"/>
<path d="M31.9774 38.144C33.2778 38.144 34.3319 37.0906 34.3319 35.7912C34.3319 34.4917 33.2778 33.4384 31.9774 33.4384C30.677 33.4384 29.6228 34.4917 29.6228 35.7912C29.6228 37.0906 30.677 38.144 31.9774 38.144Z" stroke="#101011" stroke-width="1.1786" stroke-miterlimit="10" stroke-linecap="round" stroke-linejoin="round"/>
<path d="M47.0228 38.144C48.3232 38.144 49.3774 37.0906 49.3774 35.7912C49.3774 34.4917 48.3232 33.4384 47.0228 33.4384C45.7224 33.4384 44.6682 34.4917 44.6682 35.7912C44.6682 37.0906 45.7224 38.144 47.0228 38.144Z" stroke="#101011" stroke-width="1.1786" stroke-miterlimit="10" stroke-linecap="round" stroke-linejoin="round"/>
<path d="M64.4306 35.7912C64.4306 37.0912 63.377 38.144 62.076 38.144C60.775 38.144 59.7214 37.0912 59.7214 35.7912C59.7214 34.4911 60.775 33.4384 62.076 33.4384C63.377 33.4463 64.4306 34.4991 64.4306 35.7912Z" stroke="#101011" stroke-width="1.1786" stroke-miterlimit="10" stroke-linecap="round" stroke-linejoin="round"/>
<path d="M77.1292 38.144C78.4296 38.144 79.4838 37.0906 79.4838 35.7912C79.4838 34.4917 78.4296 33.4384 77.1292 33.4384C75.8288 33.4384 74.7747 34.4917 74.7747 35.7912C74.7747 37.0906 75.8288 38.144 77.1292 38.144Z" stroke="#101011" stroke-width="1.1786" stroke-miterlimit="10" stroke-linecap="round" stroke-linejoin="round"/>
<path d="M92.1746 38.144C93.475 38.144 94.5292 37.0906 94.5292 35.7912C94.5292 34.4917 93.475 33.4384 92.1746 33.4384C90.8742 33.4384 89.8201 34.4917 89.8201 35.7912C89.8201 37.0906 90.8742 38.144 92.1746 38.144Z" stroke="#101011" stroke-width="1.1786" stroke-miterlimit="10" stroke-linecap="round" stroke-linejoin="round"/>
<path d="M4.22525 21.6023C4.22525 22.9024 3.17168 23.9552 1.87068 23.9552C0.569682 23.9552 -0.483887 22.9024 -0.483887 21.6023C-0.483887 20.3023 0.569682 19.2495 1.87068 19.2495C3.17168 19.2495 4.22525 20.3023 4.22525 21.6023Z" stroke="#101011" stroke-width="1.1786" stroke-miterlimit="10" stroke-linecap="round" stroke-linejoin="round"/>
<path d="M19.2785 21.6023C19.2785 22.9024 18.2249 23.9552 16.9239 23.9552C15.6229 23.9552 14.5693 22.9024 14.5693 21.6023C14.5693 20.3023 15.6229 19.2495 16.9239 19.2495C18.2249 19.2495 19.2785 20.3023 19.2785 21.6023Z" stroke="#101011" stroke-width="1.1786" stroke-miterlimit="10" stroke-linecap="round" stroke-linejoin="round"/>
<path d="M34.3239 21.6023C34.3239 22.9024 33.2703 23.9552 31.9693 23.9552C30.6683 23.9552 29.6147 22.9024 29.6147 21.6023C29.6147 20.3023 30.6683 19.2495 31.9693 19.2495C33.2703 19.2495 34.3239 20.3023 34.3239 21.6023Z" stroke="#101011" stroke-width="1.1786" stroke-miterlimit="10" stroke-linecap="round" stroke-linejoin="round"/>
<path d="M49.3771 21.6023C49.3771 22.9024 48.3235 23.9552 47.0225 23.9552C45.7215 23.9552 44.668 22.9024 44.668 21.6023C44.668 20.3023 45.7215 19.2495 47.0225 19.2495C48.3235 19.2495 49.3771 20.3023 49.3771 21.6023Z" stroke="#101011" stroke-width="1.1786" stroke-miterlimit="10" stroke-linecap="round" stroke-linejoin="round"/>
<path d="M64.4306 21.6023C64.4306 22.9024 63.377 23.9552 62.076 23.9552C60.775 23.9552 59.7214 22.9024 59.7214 21.6023C59.7214 20.3023 60.775 19.2495 62.076 19.2495C63.377 19.2495 64.4306 20.3023 64.4306 21.6023Z" stroke="#101011" stroke-width="1.1786" stroke-miterlimit="10" stroke-linecap="round" stroke-linejoin="round"/>
<path d="M79.4757 21.6023C79.4757 22.9024 78.4222 23.9552 77.1212 23.9552C75.8202 23.9552 74.7666 22.9024 74.7666 21.6023C74.7666 20.3023 75.8202 19.2495 77.1212 19.2495C78.4222 19.2495 79.4757 20.3023 79.4757 21.6023Z" stroke="#101011" stroke-width="1.1786" stroke-miterlimit="10" stroke-linecap="round" stroke-linejoin="round"/>
<path d="M94.529 21.6023C94.529 22.9024 93.4754 23.9552 92.1744 23.9552C90.8734 23.9552 89.8198 22.9024 89.8198 21.6023C89.8198 20.3023 90.8734 19.2495 92.1744 19.2495C93.4754 19.2495 94.529 20.3023 94.529 21.6023Z" stroke="#101011" stroke-width="1.1786" stroke-miterlimit="10" stroke-linecap="round" stroke-linejoin="round"/>
<path d="M4.22525 7.40569C4.22525 8.70572 3.17168 9.75852 1.87068 9.75852C0.569682 9.75852 -0.483887 8.70572 -0.483887 7.40569C-0.483887 6.10565 0.569682 5.05286 1.87068 5.05286C3.17168 5.05286 4.22525 6.10565 4.22525 7.40569Z" stroke="#101011" stroke-width="1.1786" stroke-miterlimit="10" stroke-linecap="round" stroke-linejoin="round"/>
<path d="M19.2785 7.40569C19.2785 8.70572 18.2249 9.75852 16.9239 9.75852C15.6229 9.75852 14.5693 8.70572 14.5693 7.40569C14.5693 6.10565 15.6229 5.05286 16.9239 5.05286C18.2249 5.05286 19.2785 6.10565 19.2785 7.40569Z" stroke="#101011" stroke-width="1.1786" stroke-miterlimit="10" stroke-linecap="round" stroke-linejoin="round"/>
<path d="M34.3239 7.40569C34.3239 8.70572 33.2703 9.75852 31.9693 9.75852C30.6683 9.75852 29.6147 8.70572 29.6147 7.40569C29.6147 6.10565 30.6683 5.05286 31.9693 5.05286C33.2703 5.05286 34.3239 6.10565 34.3239 7.40569Z" stroke="#101011" stroke-width="1.1786" stroke-miterlimit="10" stroke-linecap="round" stroke-linejoin="round"/>
<path d="M49.3771 7.40569C49.3771 8.70572 48.3235 9.75852 47.0225 9.75852C45.7215 9.75852 44.668 8.70572 44.668 7.40569C44.668 6.10565 45.7215 5.05286 47.0225 5.05286C48.3235 5.05286 49.3771 6.10565 49.3771 7.40569Z" stroke="#101011" stroke-width="1.1786" stroke-miterlimit="10" stroke-linecap="round" stroke-linejoin="round"/>
<path d="M64.4306 7.40569C64.4306 8.70572 63.377 9.75852 62.076 9.75852C60.775 9.75852 59.7214 8.70572 59.7214 7.40569C59.7214 6.10565 60.775 5.05286 62.076 5.05286C63.377 5.05286 64.4306 6.10565 64.4306 7.40569Z" stroke="#101011" stroke-width="1.1786" stroke-miterlimit="10" stroke-linecap="round" stroke-linejoin="round"/>
<path d="M79.4757 7.40569C79.4757 8.70572 78.4222 9.75852 77.1212 9.75852C75.8202 9.75852 74.7666 8.70572 74.7666 7.40569C74.7666 6.10565 75.8202 5.05286 77.1212 5.05286C78.4222 5.05286 79.4757 6.10565 79.4757 7.40569Z" stroke="#101011" stroke-width="1.1786" stroke-miterlimit="10" stroke-linecap="round" stroke-linejoin="round"/>
<path d="M94.529 7.40569C94.529 8.70572 93.4754 9.75852 92.1744 9.75852C90.8734 9.75852 89.8198 8.70572 89.8198 7.40569C89.8198 6.10565 90.8734 5.05286 92.1744 5.05286C93.4754 5.05286 94.529 6.10565 94.529 7.40569Z" stroke="#101011" stroke-width="1.1786" stroke-miterlimit="10" stroke-linecap="round" stroke-linejoin="round"/>
</g>
<defs>
<clipPath id="clip0_1_783">
<rect width="111" height="105" fill="white" transform="translate(-16 -38)"/>
</clipPath>
</defs>
</svg>
