<svg width="102" height="156" viewBox="0 0 102 156" fill="none" xmlns="http://www.w3.org/2000/svg">
<path d="M18.3085 152.478C18.3085 154.428 16.8499 156 15.0402 156C13.2305 156 11.772 154.428 11.772 152.478C11.772 150.528 13.2305 148.957 15.0402 148.957C16.8499 148.957 18.3085 150.528 18.3085 152.478Z" fill="#101011"/>
<path d="M39.2281 152.478C39.2281 154.428 37.7696 156 35.9599 156C34.1502 156 32.6917 154.428 32.6917 152.478C32.6917 150.528 34.1502 148.957 35.9599 148.957C37.7696 148.957 39.2281 150.528 39.2281 152.478Z" fill="#101011"/>
<path d="M60.161 152.478C60.161 154.428 58.7025 156 56.8928 156C55.0831 156 53.6245 154.428 53.6245 152.478C53.6245 150.528 55.0831 148.957 56.8928 148.957C58.6889 148.957 60.161 150.528 60.161 152.478Z" fill="#101011"/>
<path d="M18.3085 131.188C18.3085 133.138 16.8499 134.71 15.0402 134.71C13.2305 134.71 11.772 133.138 11.772 131.188C11.772 129.238 13.2305 127.667 15.0402 127.667C16.8499 127.667 18.3085 129.253 18.3085 131.188Z" fill="#101011"/>
<path d="M39.2279 131.188C39.2279 133.138 37.7693 134.71 35.9597 134.71C34.15 134.71 32.6914 133.138 32.6914 131.188C32.6914 129.238 34.15 127.667 35.9597 127.667C37.7693 127.667 39.2279 129.253 39.2279 131.188Z" fill="#101011"/>
<path d="M60.161 131.188C60.161 133.138 58.7025 134.71 56.8928 134.71C55.0831 134.71 53.6245 133.138 53.6245 131.188C53.6245 129.238 55.0831 127.667 56.8928 127.667C58.6889 127.667 60.161 129.253 60.161 131.188Z" fill="#101011"/>
<path d="M81.0805 131.188C81.0805 133.138 79.6219 134.71 77.8122 134.71C76.0025 134.71 74.5439 133.138 74.5439 131.188C74.5439 129.238 76.0025 127.667 77.8122 127.667C79.6084 127.667 81.0805 129.253 81.0805 131.188Z" fill="#101011"/>
<path d="M18.3085 109.913C18.3085 111.863 16.8499 113.435 15.0402 113.435C13.2305 113.435 11.772 111.863 11.772 109.913C11.772 107.963 13.2305 106.391 15.0402 106.391C16.8499 106.391 18.3085 107.978 18.3085 109.913Z" fill="#101011"/>
<path d="M39.2279 109.913C39.2279 111.863 37.7693 113.435 35.9597 113.435C34.15 113.435 32.6914 111.863 32.6914 109.913C32.6914 107.963 34.15 106.391 35.9597 106.391C37.7693 106.391 39.2279 107.978 39.2279 109.913Z" fill="#101011"/>
<path d="M60.161 109.913C60.161 111.863 58.7025 113.435 56.8928 113.435C55.0831 113.435 53.6245 111.863 53.6245 109.913C53.6245 107.963 55.0831 106.391 56.8928 106.391C58.6889 106.391 60.161 107.978 60.161 109.913Z" fill="#101011"/>
<path d="M81.0805 109.913C81.0805 111.863 79.6219 113.435 77.8122 113.435C76.0025 113.435 74.5439 111.863 74.5439 109.913C74.5439 107.963 76.0025 106.391 77.8122 106.391C79.6084 106.391 81.0805 107.978 81.0805 109.913Z" fill="#101011"/>
<path d="M18.3085 88.6377C18.3085 90.5877 16.8499 92.1593 15.0402 92.1593C13.2305 92.1593 11.772 90.5877 11.772 88.6377C11.772 86.6877 13.2305 85.1161 15.0402 85.1161C16.8499 85.1161 18.3085 86.6877 18.3085 88.6377Z" fill="#101011"/>
<path d="M39.2279 88.6377C39.2279 90.5877 37.7693 92.1593 35.9597 92.1593C34.15 92.1593 32.6914 90.5877 32.6914 88.6377C32.6914 86.6877 34.15 85.1161 35.9597 85.1161C37.7693 85.1161 39.2279 86.6877 39.2279 88.6377Z" fill="#101011"/>
<path d="M56.8928 92.1593C58.6978 92.1593 60.161 90.5826 60.161 88.6377C60.161 86.6927 58.6978 85.1161 56.8928 85.1161C55.0878 85.1161 53.6245 86.6927 53.6245 88.6377C53.6245 90.5826 55.0878 92.1593 56.8928 92.1593Z" fill="#101011"/>
<path d="M81.0805 88.6377C81.0805 90.5877 79.6219 92.1593 77.8122 92.1593C76.0025 92.1593 74.5439 90.5877 74.5439 88.6377C74.5439 86.6877 76.0025 85.1161 77.8122 85.1161C79.6084 85.1161 81.0805 86.6877 81.0805 88.6377Z" fill="#101011"/>
<path d="M102 88.6377C102 90.5877 100.541 92.1593 98.7316 92.1593C96.9219 92.1593 95.4634 90.5877 95.4634 88.6377C95.4634 86.6877 96.9219 85.1161 98.7316 85.1161C100.541 85.1161 102 86.6877 102 88.6377Z" fill="#101011"/>
<path d="M18.3085 67.3623C18.3085 69.3123 16.8499 70.884 15.0402 70.884C13.2305 70.884 11.772 69.3123 11.772 67.3623C11.772 65.4123 13.2305 63.8407 15.0402 63.8407C16.8499 63.8407 18.3085 65.4123 18.3085 67.3623Z" fill="#101011"/>
<path d="M39.2279 67.3623C39.2279 69.3123 37.7693 70.884 35.9597 70.884C34.15 70.884 32.6914 69.3123 32.6914 67.3623C32.6914 65.4123 34.15 63.8407 35.9597 63.8407C37.7693 63.8407 39.2279 65.4123 39.2279 67.3623Z" fill="#101011"/>
<path d="M60.161 67.3623C60.161 69.3123 58.7025 70.884 56.8928 70.884C55.0831 70.884 53.6245 69.3123 53.6245 67.3623C53.6245 65.4123 55.0831 63.8407 56.8928 63.8407C58.6889 63.8407 60.161 65.4123 60.161 67.3623Z" fill="#101011"/>
<path d="M81.0805 67.3623C81.0805 69.3123 79.6219 70.884 77.8122 70.884C76.0025 70.884 74.5439 69.3123 74.5439 67.3623C74.5439 65.4123 76.0025 63.8407 77.8122 63.8407C79.6084 63.8407 81.0805 65.4123 81.0805 67.3623Z" fill="#101011"/>
<path d="M102 67.3623C102 69.3123 100.541 70.884 98.7316 70.884C96.9219 70.884 95.4634 69.3123 95.4634 67.3623C95.4634 65.4123 96.9219 63.8407 98.7316 63.8407C100.541 63.8407 102 65.4123 102 67.3623Z" fill="#101011"/>
<path d="M18.3085 46.0869C18.3085 48.0369 16.8499 49.6086 15.0402 49.6086C13.2305 49.6086 11.772 48.0369 11.772 46.0869C11.772 44.1369 13.2305 42.5653 15.0402 42.5653C16.8499 42.5507 18.3085 44.1369 18.3085 46.0869Z" fill="#101011"/>
<path d="M39.2279 46.0869C39.2279 48.0369 37.7693 49.6086 35.9597 49.6086C34.15 49.6086 32.6914 48.0369 32.6914 46.0869C32.6914 44.1369 34.15 42.5653 35.9597 42.5653C37.7693 42.5507 39.2279 44.1369 39.2279 46.0869Z" fill="#101011"/>
<path d="M60.161 46.0869C60.161 48.0369 58.7025 49.6086 56.8928 49.6086C55.0831 49.6086 53.6245 48.0369 53.6245 46.0869C53.6245 44.1369 55.0831 42.5653 56.8928 42.5653C58.6889 42.5507 60.161 44.1369 60.161 46.0869Z" fill="#101011"/>
<path d="M81.0805 46.0869C81.0805 48.0369 79.6219 49.6086 77.8122 49.6086C76.0025 49.6086 74.5439 48.0369 74.5439 46.0869C74.5439 44.1369 76.0025 42.5653 77.8122 42.5653C79.6084 42.5507 81.0805 44.1369 81.0805 46.0869Z" fill="#101011"/>
<path d="M18.3085 24.797C18.3085 26.747 16.8499 28.3186 15.0402 28.3186C13.2305 28.3186 11.772 26.747 11.772 24.797C11.772 22.847 13.2305 21.2754 15.0402 21.2754C16.8499 21.2754 18.3085 22.8616 18.3085 24.797Z" fill="#101011"/>
<path d="M39.2279 24.797C39.2279 26.747 37.7693 28.3186 35.9597 28.3186C34.15 28.3186 32.6914 26.747 32.6914 24.797C32.6914 22.847 34.15 21.2754 35.9597 21.2754C37.7693 21.2754 39.2279 22.8616 39.2279 24.797Z" fill="#101011"/>
<path d="M60.161 24.797C60.161 26.747 58.7025 28.3186 56.8928 28.3186C55.0831 28.3186 53.6245 26.747 53.6245 24.797C53.6245 22.847 55.0831 21.2754 56.8928 21.2754C58.6889 21.2754 60.161 22.8616 60.161 24.797Z" fill="#101011"/>
<path d="M81.0805 24.797C81.0805 26.747 79.6219 28.3186 77.8122 28.3186C76.0025 28.3186 74.5439 26.747 74.5439 24.797C74.5439 22.847 76.0025 21.2754 77.8122 21.2754C79.6084 21.2754 81.0805 22.8616 81.0805 24.797Z" fill="#101011"/>
<path d="M18.3085 3.52164C18.3085 5.47164 16.8499 7.04328 15.0402 7.04328C13.2305 7.04328 11.772 5.47164 11.772 3.52164C11.772 1.57164 13.2305 0 15.0402 0C16.8499 0 18.3085 1.57164 18.3085 3.52164Z" fill="#101011"/>
<path d="M39.2281 3.52164C39.2281 5.47164 37.7696 7.04328 35.9599 7.04328C34.1502 7.04328 32.6917 5.47164 32.6917 3.52164C32.6917 1.57164 34.1637 0 35.9599 0C37.7696 0 39.2281 1.57164 39.2281 3.52164Z" fill="#101011"/>
<path d="M56.8928 7.04328C58.6978 7.04328 60.161 5.46659 60.161 3.52164C60.161 1.57669 58.6978 0 56.8928 0C55.0878 0 53.6245 1.57669 53.6245 3.52164C53.6245 5.46659 55.0878 7.04328 56.8928 7.04328Z" fill="#101011"/>
</svg>
