<svg width="182" height="150" viewBox="0 0 182 150" fill="none" xmlns="http://www.w3.org/2000/svg">
<g clip-path="url(#clip0_1_709)">
<path d="M5.1928 149.15C7.58271 149.15 9.52011 147.214 9.52011 144.825C9.52011 142.437 7.58271 140.5 5.1928 140.5C2.80288 140.5 0.865479 142.437 0.865479 144.825C0.865479 147.214 2.80288 149.15 5.1928 149.15Z" stroke="#101011" stroke-width="1.1786" stroke-miterlimit="10" stroke-linecap="round" stroke-linejoin="round"/>
<path d="M32.8437 149.15C35.2336 149.15 37.171 147.214 37.171 144.825C37.171 142.437 35.2336 140.5 32.8437 140.5C30.4538 140.5 28.5164 142.437 28.5164 144.825C28.5164 147.214 30.4538 149.15 32.8437 149.15Z" stroke="#101011" stroke-width="1.1786" stroke-miterlimit="10" stroke-linecap="round" stroke-linejoin="round"/>
<path d="M60.5092 149.15C62.8991 149.15 64.8365 147.214 64.8365 144.825C64.8365 142.437 62.8991 140.5 60.5092 140.5C58.1193 140.5 56.1819 142.437 56.1819 144.825C56.1819 147.214 58.1193 149.15 60.5092 149.15Z" stroke="#101011" stroke-width="1.1786" stroke-miterlimit="10" stroke-linecap="round" stroke-linejoin="round"/>
<path d="M88.1745 149.15C90.5644 149.15 92.5018 147.214 92.5018 144.825C92.5018 142.437 90.5644 140.5 88.1745 140.5C85.7846 140.5 83.8472 142.437 83.8472 144.825C83.8472 147.214 85.7846 149.15 88.1745 149.15Z" stroke="#101011" stroke-width="1.1786" stroke-miterlimit="10" stroke-linecap="round" stroke-linejoin="round"/>
<path d="M115.825 149.15C118.215 149.15 120.153 147.214 120.153 144.825C120.153 142.437 118.215 140.5 115.825 140.5C113.435 140.5 111.498 142.437 111.498 144.825C111.498 147.214 113.435 149.15 115.825 149.15Z" stroke="#101011" stroke-width="1.1786" stroke-miterlimit="10" stroke-linecap="round" stroke-linejoin="round"/>
<path d="M147.818 144.825C147.818 147.215 145.882 149.15 143.491 149.15C141.1 149.15 139.164 147.215 139.164 144.825C139.164 142.435 141.1 140.5 143.491 140.5C145.882 140.5 147.818 142.435 147.818 144.825Z" stroke="#101011" stroke-width="1.1786" stroke-miterlimit="10" stroke-linecap="round" stroke-linejoin="round"/>
<path d="M171.156 149.15C173.546 149.15 175.484 147.214 175.484 144.825C175.484 142.437 173.546 140.5 171.156 140.5C168.767 140.5 166.829 142.437 166.829 144.825C166.829 147.214 168.767 149.15 171.156 149.15Z" stroke="#101011" stroke-width="1.1786" stroke-miterlimit="10" stroke-linecap="round" stroke-linejoin="round"/>
<path d="M5.1928 123.055C7.58271 123.055 9.52011 121.119 9.52011 118.73C9.52011 116.342 7.58271 114.405 5.1928 114.405C2.80288 114.405 0.865479 116.342 0.865479 118.73C0.865479 121.119 2.80288 123.055 5.1928 123.055Z" stroke="#101011" stroke-width="1.1786" stroke-miterlimit="10" stroke-linecap="round" stroke-linejoin="round"/>
<path d="M32.8437 123.055C35.2336 123.055 37.171 121.119 37.171 118.73C37.171 116.342 35.2336 114.405 32.8437 114.405C30.4538 114.405 28.5164 116.342 28.5164 118.73C28.5164 121.119 30.4538 123.055 32.8437 123.055Z" stroke="#101011" stroke-width="1.1786" stroke-miterlimit="10" stroke-linecap="round" stroke-linejoin="round"/>
<path d="M60.5092 123.055C62.8991 123.055 64.8365 121.119 64.8365 118.73C64.8365 116.342 62.8991 114.405 60.5092 114.405C58.1193 114.405 56.1819 116.342 56.1819 118.73C56.1819 121.119 58.1193 123.055 60.5092 123.055Z" stroke="#101011" stroke-width="1.1786" stroke-miterlimit="10" stroke-linecap="round" stroke-linejoin="round"/>
<path d="M88.1745 123.055C90.5644 123.055 92.5018 121.119 92.5018 118.73C92.5018 116.342 90.5644 114.405 88.1745 114.405C85.7846 114.405 83.8472 116.342 83.8472 118.73C83.8472 121.119 85.7846 123.055 88.1745 123.055Z" stroke="#101011" stroke-width="1.1786" stroke-miterlimit="10" stroke-linecap="round" stroke-linejoin="round"/>
<path d="M115.825 123.055C118.215 123.055 120.153 121.119 120.153 118.73C120.153 116.342 118.215 114.405 115.825 114.405C113.435 114.405 111.498 116.342 111.498 118.73C111.498 121.119 113.435 123.055 115.825 123.055Z" stroke="#101011" stroke-width="1.1786" stroke-miterlimit="10" stroke-linecap="round" stroke-linejoin="round"/>
<path d="M147.818 118.73C147.818 121.12 145.882 123.055 143.491 123.055C141.1 123.055 139.164 121.12 139.164 118.73C139.164 116.341 141.1 114.405 143.491 114.405C145.882 114.405 147.818 116.341 147.818 118.73Z" stroke="#101011" stroke-width="1.1786" stroke-miterlimit="10" stroke-linecap="round" stroke-linejoin="round"/>
<path d="M171.156 123.055C173.546 123.055 175.484 121.119 175.484 118.73C175.484 116.342 173.546 114.405 171.156 114.405C168.767 114.405 166.829 116.342 166.829 118.73C166.829 121.119 168.767 123.055 171.156 123.055Z" stroke="#101011" stroke-width="1.1786" stroke-miterlimit="10" stroke-linecap="round" stroke-linejoin="round"/>
<path d="M5.1928 96.9599C7.58271 96.9599 9.52011 95.0236 9.52011 92.6351C9.52011 90.2467 7.58271 88.3104 5.1928 88.3104C2.80288 88.3104 0.865479 90.2467 0.865479 92.6351C0.865479 95.0236 2.80288 96.9599 5.1928 96.9599Z" stroke="#101011" stroke-width="1.1786" stroke-miterlimit="10" stroke-linecap="round" stroke-linejoin="round"/>
<path d="M32.8437 96.9599C35.2336 96.9599 37.171 95.0236 37.171 92.6351C37.171 90.2467 35.2336 88.3104 32.8437 88.3104C30.4538 88.3104 28.5164 90.2467 28.5164 92.6351C28.5164 95.0236 30.4538 96.9599 32.8437 96.9599Z" stroke="#101011" stroke-width="1.1786" stroke-miterlimit="10" stroke-linecap="round" stroke-linejoin="round"/>
<path d="M60.5092 96.9599C62.8991 96.9599 64.8365 95.0236 64.8365 92.6351C64.8365 90.2467 62.8991 88.3104 60.5092 88.3104C58.1193 88.3104 56.1819 90.2467 56.1819 92.6351C56.1819 95.0236 58.1193 96.9599 60.5092 96.9599Z" stroke="#101011" stroke-width="1.1786" stroke-miterlimit="10" stroke-linecap="round" stroke-linejoin="round"/>
<path d="M88.1745 96.9599C90.5644 96.9599 92.5018 95.0236 92.5018 92.6351C92.5018 90.2467 90.5644 88.3104 88.1745 88.3104C85.7846 88.3104 83.8472 90.2467 83.8472 92.6351C83.8472 95.0236 85.7846 96.9599 88.1745 96.9599Z" stroke="#101011" stroke-width="1.1786" stroke-miterlimit="10" stroke-linecap="round" stroke-linejoin="round"/>
<path d="M115.825 96.9599C118.215 96.9599 120.153 95.0236 120.153 92.6351C120.153 90.2467 118.215 88.3104 115.825 88.3104C113.435 88.3104 111.498 90.2467 111.498 92.6351C111.498 95.0236 113.435 96.9599 115.825 96.9599Z" stroke="#101011" stroke-width="1.1786" stroke-miterlimit="10" stroke-linecap="round" stroke-linejoin="round"/>
<path d="M147.818 92.6351C147.818 95.0247 145.882 96.9599 143.491 96.9599C141.1 96.9599 139.164 95.0247 139.164 92.6351C139.164 90.2456 141.1 88.3104 143.491 88.3104C145.882 88.3251 147.818 90.2602 147.818 92.6351Z" stroke="#101011" stroke-width="1.1786" stroke-miterlimit="10" stroke-linecap="round" stroke-linejoin="round"/>
<path d="M171.156 96.9599C173.546 96.9599 175.484 95.0236 175.484 92.6351C175.484 90.2467 173.546 88.3104 171.156 88.3104C168.767 88.3104 166.829 90.2467 166.829 92.6351C166.829 95.0236 168.767 96.9599 171.156 96.9599Z" stroke="#101011" stroke-width="1.1786" stroke-miterlimit="10" stroke-linecap="round" stroke-linejoin="round"/>
<path d="M9.50546 66.5548C9.50546 68.9444 7.56917 70.8796 5.17815 70.8796C2.78712 70.8796 0.85083 68.9444 0.85083 66.5548C0.85083 64.1652 2.78712 62.2301 5.17815 62.2301C7.56917 62.2301 9.50546 64.1652 9.50546 66.5548Z" stroke="#101011" stroke-width="1.1786" stroke-miterlimit="10" stroke-linecap="round" stroke-linejoin="round"/>
<path d="M37.171 66.5548C37.171 68.9444 35.2347 70.8796 32.8437 70.8796C30.4526 70.8796 28.5164 68.9444 28.5164 66.5548C28.5164 64.1652 30.4526 62.2301 32.8437 62.2301C35.2347 62.2301 37.171 64.1652 37.171 66.5548Z" stroke="#101011" stroke-width="1.1786" stroke-miterlimit="10" stroke-linecap="round" stroke-linejoin="round"/>
<path d="M64.8365 66.5548C64.8365 68.9444 62.9002 70.8796 60.5092 70.8796C58.1182 70.8796 56.1819 68.9444 56.1819 66.5548C56.1819 64.1652 58.1182 62.2301 60.5092 62.2301C62.9002 62.2301 64.8365 64.1652 64.8365 66.5548Z" stroke="#101011" stroke-width="1.1786" stroke-miterlimit="10" stroke-linecap="round" stroke-linejoin="round"/>
<path d="M92.4872 66.5548C92.4872 68.9444 90.5509 70.8796 88.1598 70.8796C85.7688 70.8796 83.8325 68.9444 83.8325 66.5548C83.8325 64.1652 85.7688 62.2301 88.1598 62.2301C90.5509 62.2301 92.4872 64.1652 92.4872 66.5548Z" stroke="#101011" stroke-width="1.1786" stroke-miterlimit="10" stroke-linecap="round" stroke-linejoin="round"/>
<path d="M120.153 66.5548C120.153 68.9444 118.216 70.8796 115.825 70.8796C113.434 70.8796 111.498 68.9444 111.498 66.5548C111.498 64.1652 113.434 62.2301 115.825 62.2301C118.216 62.2301 120.153 64.1652 120.153 66.5548Z" stroke="#101011" stroke-width="1.1786" stroke-miterlimit="10" stroke-linecap="round" stroke-linejoin="round"/>
<path d="M147.818 66.5548C147.818 68.9444 145.882 70.8796 143.491 70.8796C141.1 70.8796 139.164 68.9444 139.164 66.5548C139.164 64.1652 141.1 62.2301 143.491 62.2301C145.882 62.2301 147.818 64.1652 147.818 66.5548Z" stroke="#101011" stroke-width="1.1786" stroke-miterlimit="10" stroke-linecap="round" stroke-linejoin="round"/>
<path d="M175.469 66.5548C175.469 68.9444 173.533 70.8796 171.142 70.8796C168.751 70.8796 166.814 68.9444 166.814 66.5548C166.814 64.1652 168.751 62.2301 171.142 62.2301C173.533 62.2301 175.469 64.1652 175.469 66.5548Z" stroke="#101011" stroke-width="1.1786" stroke-miterlimit="10" stroke-linecap="round" stroke-linejoin="round"/>
<path d="M9.50546 40.4599C9.50546 42.8495 7.56917 44.7846 5.17815 44.7846C2.78712 44.7846 0.85083 42.8495 0.85083 40.4599C0.85083 38.0703 2.78712 36.1351 5.17815 36.1351C7.56917 36.1351 9.50546 38.0703 9.50546 40.4599Z" stroke="#101011" stroke-width="1.1786" stroke-miterlimit="10" stroke-linecap="round" stroke-linejoin="round"/>
<path d="M37.171 40.4599C37.171 42.8495 35.2347 44.7846 32.8437 44.7846C30.4526 44.7846 28.5164 42.8495 28.5164 40.4599C28.5164 38.0703 30.4526 36.1351 32.8437 36.1351C35.2347 36.1351 37.171 38.0703 37.171 40.4599Z" stroke="#101011" stroke-width="1.1786" stroke-miterlimit="10" stroke-linecap="round" stroke-linejoin="round"/>
<path d="M64.8365 40.4599C64.8365 42.8495 62.9002 44.7846 60.5092 44.7846C58.1182 44.7846 56.1819 42.8495 56.1819 40.4599C56.1819 38.0703 58.1182 36.1351 60.5092 36.1351C62.9002 36.1351 64.8365 38.0703 64.8365 40.4599Z" stroke="#101011" stroke-width="1.1786" stroke-miterlimit="10" stroke-linecap="round" stroke-linejoin="round"/>
<path d="M92.4872 40.4599C92.4872 42.8495 90.5509 44.7846 88.1598 44.7846C85.7688 44.7846 83.8325 42.8495 83.8325 40.4599C83.8325 38.0703 85.7688 36.1351 88.1598 36.1351C90.5509 36.1351 92.4872 38.0703 92.4872 40.4599Z" stroke="#101011" stroke-width="1.1786" stroke-miterlimit="10" stroke-linecap="round" stroke-linejoin="round"/>
<path d="M120.153 40.4599C120.153 42.8495 118.216 44.7846 115.825 44.7846C113.434 44.7846 111.498 42.8495 111.498 40.4599C111.498 38.0703 113.434 36.1351 115.825 36.1351C118.216 36.1351 120.153 38.0703 120.153 40.4599Z" stroke="#101011" stroke-width="1.1786" stroke-miterlimit="10" stroke-linecap="round" stroke-linejoin="round"/>
<path d="M147.818 40.4599C147.818 42.8495 145.882 44.7846 143.491 44.7846C141.1 44.7846 139.164 42.8495 139.164 40.4599C139.164 38.0703 141.1 36.1351 143.491 36.1351C145.882 36.1351 147.818 38.0703 147.818 40.4599Z" stroke="#101011" stroke-width="1.1786" stroke-miterlimit="10" stroke-linecap="round" stroke-linejoin="round"/>
<path d="M175.469 40.4599C175.469 42.8495 173.533 44.7846 171.142 44.7846C168.751 44.7846 166.814 42.8495 166.814 40.4599C166.814 38.0703 168.751 36.1351 171.142 36.1351C173.533 36.1351 175.469 38.0703 175.469 40.4599Z" stroke="#101011" stroke-width="1.1786" stroke-miterlimit="10" stroke-linecap="round" stroke-linejoin="round"/>
<path d="M9.50546 14.365C9.50546 16.7546 7.56917 18.6897 5.17815 18.6897C2.78712 18.6897 0.85083 16.7546 0.85083 14.365C0.85083 11.9754 2.78712 10.0403 5.17815 10.0403C7.56917 10.0403 9.50546 11.9754 9.50546 14.365Z" stroke="#101011" stroke-width="1.1786" stroke-miterlimit="10" stroke-linecap="round" stroke-linejoin="round"/>
<path d="M37.171 14.365C37.171 16.7546 35.2347 18.6897 32.8437 18.6897C30.4526 18.6897 28.5164 16.7546 28.5164 14.365C28.5164 11.9754 30.4526 10.0403 32.8437 10.0403C35.2347 10.0403 37.171 11.9754 37.171 14.365Z" stroke="#101011" stroke-width="1.1786" stroke-miterlimit="10" stroke-linecap="round" stroke-linejoin="round"/>
<path d="M64.8365 14.365C64.8365 16.7546 62.9002 18.6897 60.5092 18.6897C58.1182 18.6897 56.1819 16.7546 56.1819 14.365C56.1819 11.9754 58.1182 10.0403 60.5092 10.0403C62.9002 10.0403 64.8365 11.9754 64.8365 14.365Z" stroke="#101011" stroke-width="1.1786" stroke-miterlimit="10" stroke-linecap="round" stroke-linejoin="round"/>
<path d="M92.4872 14.365C92.4872 16.7546 90.5509 18.6897 88.1598 18.6897C85.7688 18.6897 83.8325 16.7546 83.8325 14.365C83.8325 11.9754 85.7688 10.0403 88.1598 10.0403C90.5509 10.0403 92.4872 11.9754 92.4872 14.365Z" stroke="#101011" stroke-width="1.1786" stroke-miterlimit="10" stroke-linecap="round" stroke-linejoin="round"/>
<path d="M120.153 14.365C120.153 16.7546 118.216 18.6897 115.825 18.6897C113.434 18.6897 111.498 16.7546 111.498 14.365C111.498 11.9754 113.434 10.0403 115.825 10.0403C118.216 10.0403 120.153 11.9754 120.153 14.365Z" stroke="#101011" stroke-width="1.1786" stroke-miterlimit="10" stroke-linecap="round" stroke-linejoin="round"/>
<path d="M147.818 14.365C147.818 16.7546 145.882 18.6897 143.491 18.6897C141.1 18.6897 139.164 16.7546 139.164 14.365C139.164 11.9754 141.1 10.0403 143.491 10.0403C145.882 10.0403 147.818 11.9754 147.818 14.365Z" stroke="#101011" stroke-width="1.1786" stroke-miterlimit="10" stroke-linecap="round" stroke-linejoin="round"/>
<path d="M175.469 14.365C175.469 16.7546 173.533 18.6897 171.142 18.6897C168.751 18.6897 166.814 16.7546 166.814 14.365C166.814 11.9754 168.751 10.0403 171.142 10.0403C173.533 10.0403 175.469 11.9754 175.469 14.365Z" stroke="#101011" stroke-width="1.1786" stroke-miterlimit="10" stroke-linecap="round" stroke-linejoin="round"/>
</g>
<defs>
<clipPath id="clip0_1_709">
<rect width="204" height="193" fill="white" transform="translate(0 -43)"/>
</clipPath>
</defs>
</svg>
