<svg width="102" height="91" viewBox="0 0 102 91" fill="none" xmlns="http://www.w3.org/2000/svg">
<g clip-path="url(#clip0_1_641)">
<path d="M53.0349 42.1756C54.4831 44.6743 55.019 47.3596 55.019 49.9731C55.0335 56.7368 64.5629 58.6897 67.3725 52.5149C67.416 52.4144 67.4594 52.3138 67.5029 52.2133C69.1973 48.2787 71.1235 45.8949 72.8324 44.4301C75.2075 42.4054 75.8158 39.0164 74.2517 36.3167L54.9755 3.21663C52.4846 -1.04832 46.2861 -1.07704 43.7661 3.17355L30.8767 24.9291C28.3423 29.2228 31.456 34.6222 36.4669 34.6078C42.6654 34.5935 49.5591 36.13 53.0349 42.1756Z" fill="#1262D8"/>
<path d="M36.264 65.9273C37.7122 63.4286 39.7543 61.5905 42.028 60.255C47.8934 56.8086 44.7362 47.6756 37.9584 48.4079C37.8426 48.4223 37.7412 48.4367 37.6253 48.451C32.8606 49.0542 29.3993 48.4941 27.0097 47.6612C24.1132 46.656 20.9271 47.8479 19.3629 50.4614L0.912289 81.2782C-1.65111 85.5719 1.46262 90.9857 6.48804 90.9857H30.9779C35.8585 90.9857 38.9867 85.8447 36.7129 81.5654C34.3378 77.0851 33.0634 71.499 36.264 65.9273Z" fill="#E30613"/>
<path d="M63.3898 71.14C60.4644 71.1544 57.9155 70.264 55.7141 68.8855C49.7618 65.1806 43.042 72.4899 47.0681 78.2052C47.1985 78.3775 47.3288 78.5642 47.4591 78.7365C49.9791 81.9963 51.1811 84.5236 51.717 86.4335C52.4845 89.1619 55.0769 91 57.93 91H95.4975C100.465 91 103.593 85.6868 101.146 81.4075L89.3279 60.7002C86.837 56.3347 80.5226 56.3635 78.0316 60.7289C75.0193 65.9991 70.3125 71.0969 63.3898 71.14Z" fill="#FF7101"/>
</g>
<defs>
<clipPath id="clip0_1_641">
<rect width="102" height="91" fill="white"/>
</clipPath>
</defs>
</svg>
