<svg width="224" height="49" viewBox="0 0 224 49" fill="none" xmlns="http://www.w3.org/2000/svg">
<path d="M223 14.7009H211.285L205.995 19.9699V14.7009H190.54V33.3018L184.701 14.7009H165.324L159.493 33.2822V14.7009H141.455L138.785 21.9464L135.708 14.7009H117.676V18.6512C115.944 16.8539 112.937 14.7009 108.493 14.7009H61.1375V48.0028H102.606V39.531H108.493C112.94 39.531 115.944 37.3781 117.676 35.5807V48.0028H132.236V38.8843L134.378 43.8425H142.755L144.934 38.7947V48.0028H170.439L171.801 42.5435H176.992L178.297 48.0028H205.998V41.5356L210.117 48.0028H223.003V39.6234L215.827 29.9478L223.003 23.4358V14.7009H223Z" fill="white"/>
<path d="M221.142 16.4451H212.051L205.507 22.9655H204.134V16.4451H192.393V46.043H204.134V37.9408L205.296 36.8854L211.127 46.043H221.136V40.1246L213.328 29.5923L221.136 22.5064V16.4451H221.142ZM176.464 32.6635L174.912 26.1655H173.839L172.219 32.6635H176.464ZM190.723 39.9734V46.043H179.763L178.46 40.5837H170.35L168.991 46.043H159.305V39.9734L166.691 16.4451H183.339L190.723 39.9734ZM146.944 16.4451H146.79H142.75L139.381 25.5804H138.353L134.476 16.4451H130.377H119.532V46.043H130.377V32.3611H131.486L135.599 41.8828H137.941H139.384H141.534L145.644 32.3611H146.792V46.043H157.637V16.4451H146.944ZM106.826 25.5636C106.826 25.5636 106.5 24.4885 104.692 24.4885H100.75V27.039V29.5895H104.692C106.5 29.5895 106.826 28.5144 106.826 28.5144V27.039V25.5636ZM117.873 21.8149V26.8878V27.1342V32.2044C117.873 32.2044 114.942 37.5713 108.493 37.5713H100.748V46.043H88.9957V16.4451H99.0323H100.75H108.496C114.942 16.4451 117.873 21.8149 117.873 21.8149ZM74.748 37.9996V35.1748H83.7093V27.1314H74.748V24.4885H86.994V16.4451H74.748H72.2438H62.9961V46.043H72.2438H74.748H87.3197V37.9996H74.748Z" fill="#232020"/>
<path d="M0 14.7038L3.64124 24.175L6.90909 32.6747H6.9119L10.2836 41.446V48H49.7056V41.4488L59.9892 14.7038L29.9946 0L0 14.7038Z" fill="white"/>
<path d="M57.6114 15.5268L48.5742 39.0243L29.9946 29.9143L11.4151 39.0243L9.12981 33.0835L29.9946 22.8535V19.1524L7.93384 29.9674L5.64859 24.0266L29.9946 12.0917V9.04846L4.66318 21.4677L2.37793 15.5268L29.9946 1.99054L57.6114 15.5268Z" fill="#232020"/>
<path d="M12.1702 42.2131V46.0122H29.9946H47.8161V42.2131L29.9946 33.4894L12.1702 42.2131Z" fill="#232020"/>
</svg>
