<svg width="226" height="80" viewBox="0 0 226 80" fill="none" xmlns="http://www.w3.org/2000/svg">
<path fill-rule="evenodd" clip-rule="evenodd" d="M94.9092 9.46122H94.7499L93.396 12.4088L92.0421 15.2788C91.8828 15.7442 91.6439 15.9769 91.4049 16.2097C91.166 16.3648 90.9271 16.4424 90.5289 16.4424H88.7767C88.2989 16.4424 88.0599 16.3648 87.821 16.2097C87.6617 16.0545 87.4228 15.7442 87.2635 15.2788L86.0689 12.9518L84.5556 9.7715H84.3964V18.0713C84.3964 18.304 84.3167 18.4591 84.2371 18.5367C84.1574 18.6143 83.9981 18.6143 83.7592 18.6143H80.0956C79.9364 18.6143 79.7771 18.6143 79.6178 18.5367C79.5381 18.4591 79.4585 18.3816 79.4585 18.0713V2.48009C79.4585 1.70441 79.6178 1.16143 79.9364 0.851159C80.2549 0.540886 80.7328 0.463318 81.3699 0.463318H83.4406C83.9981 0.463318 84.3964 0.540886 84.6353 0.773591C84.8742 1.0063 85.1131 1.31657 85.3521 1.78198L87.5024 6.04822L89.5731 10.3145H89.6528L91.7235 6.12579L93.8739 1.85954C94.1128 1.39414 94.3517 1.08386 94.6703 0.851159C94.9889 0.618454 95.4667 0.540886 96.1038 0.540886H97.7764C98.0949 0.540886 98.3339 0.540886 98.5728 0.618454C98.8117 0.696022 98.971 0.77359 99.1303 0.851159C99.2896 1.00629 99.4489 1.16143 99.5285 1.39414C99.6081 1.62684 99.6878 1.93711 99.6878 2.32495V18.0713C99.6878 18.304 99.6081 18.4591 99.5285 18.5367C99.4489 18.6143 99.2896 18.6143 99.0506 18.6143H95.5464C95.3871 18.6143 95.2278 18.6143 95.0685 18.5367C94.9889 18.4591 94.9092 18.3816 94.9092 18.0713V9.46122ZM112.431 5.11741H115.298C115.537 5.11741 115.776 5.35011 115.776 5.58281V18.1489C115.776 18.3816 115.537 18.6143 115.298 18.6143H112.431C112.192 18.6143 111.953 18.3816 111.953 18.1489V17.5283C111.316 18.0713 110.678 18.4591 110.041 18.6143C109.165 18.9245 108.369 18.9245 108.05 18.9245C106.218 18.9245 104.466 18.2264 103.192 16.8302C101.997 15.5891 101.281 13.9602 101.281 11.8658C101.281 9.77149 101.997 7.98743 103.272 6.74634C104.546 5.42768 106.218 4.652 108.21 4.652C109.165 4.652 110.121 4.8847 110.838 5.27254C111.236 5.50525 111.634 5.73795 111.953 6.12579V5.58281C112.032 5.27254 112.192 5.11741 112.431 5.11741ZM110.997 9.38366C110.44 8.84068 109.643 8.45284 108.687 8.45284C107.732 8.45284 106.856 8.84068 106.298 9.46122C105.661 10.0818 105.342 10.935 105.342 12.021C105.342 12.9518 105.661 13.805 106.298 14.4256C106.856 14.9686 107.732 15.3564 108.687 15.3564C109.643 15.3564 110.44 15.0461 110.997 14.4256C111.555 13.805 111.873 12.9518 111.873 11.9434C111.953 10.8574 111.634 10.0042 110.997 9.38366ZM117.846 18.1489V5.58281C117.846 5.35011 118.085 5.11741 118.324 5.11741H125.651C125.89 5.11741 126.129 5.35011 126.129 5.58281V8.22013C126.129 8.45284 125.89 8.68554 125.651 8.68554H121.828V18.1489C121.828 18.3816 121.59 18.6143 121.351 18.6143H118.245C118.006 18.5367 117.846 18.3816 117.846 18.1489ZM137.677 5.11741H140.545C140.783 5.11741 141.022 5.35011 141.022 5.58281V18.1489C141.022 18.3816 140.783 18.6143 140.545 18.6143H137.677C137.438 18.6143 137.2 18.3816 137.2 18.1489V17.5283C136.562 18.0713 135.925 18.4591 135.288 18.6143C134.412 18.9245 133.616 18.9245 133.297 18.9245C131.465 18.9245 129.713 18.2264 128.439 16.8302C127.244 15.5891 126.527 13.9602 126.527 11.8658C126.527 9.77149 127.244 7.98743 128.518 6.74634C129.793 5.42768 131.465 4.652 133.456 4.652C134.492 4.652 135.368 4.8847 136.085 5.27254C136.483 5.50525 136.881 5.73795 137.2 6.12579V5.58281C137.2 5.27254 137.359 5.11741 137.677 5.11741ZM136.164 9.38366C135.607 8.84068 134.81 8.45284 133.855 8.45284C132.899 8.45284 132.023 8.84068 131.465 9.46122C130.908 10.0818 130.51 10.935 130.51 12.021C130.51 12.9518 130.828 13.805 131.465 14.4256C132.023 14.9686 132.899 15.3564 133.855 15.3564C134.81 15.3564 135.607 15.0461 136.244 14.4256C136.801 13.805 137.12 12.9518 137.12 11.9434C137.12 10.8574 136.801 10.0042 136.164 9.38366ZM146.996 8.68554C146.836 8.84068 146.757 9.07338 146.677 9.30609C146.677 9.53879 146.438 9.7715 146.199 9.7715H143.093C142.854 9.7715 142.615 9.53879 142.695 9.30609C142.775 8.065 143.252 6.8239 144.208 5.97066C145.005 5.19497 146.199 4.72957 147.633 4.72957C149.146 4.72957 150.341 5.11741 151.137 5.73795C152.093 6.51363 152.571 7.59959 152.571 8.68554C152.571 9.38365 152.332 10.0818 151.933 10.6247C151.695 10.935 151.456 11.1677 151.137 11.3229C151.535 11.5556 151.854 11.8658 152.093 12.1761C152.571 12.7967 152.81 13.5723 152.81 14.4256C152.81 15.7442 152.332 16.9078 151.376 17.761C150.5 18.5367 149.226 19.0021 147.633 19.0021C147.633 19.0021 147.553 19.0021 147.473 19.0021C145.482 18.9245 144.208 18.2264 143.491 17.218C142.695 16.2097 142.456 15.0461 142.456 14.0377V13.9602C142.456 13.7275 142.695 13.4948 142.934 13.4948H146.04C146.279 13.4948 146.518 13.7275 146.518 13.9602C146.518 14.348 146.597 14.7359 146.916 14.9686C147.155 15.2013 147.394 15.2788 147.872 15.2788C147.951 15.2788 148.19 15.2788 148.509 15.1237C148.748 15.0461 148.907 14.8134 148.907 14.348C148.907 13.8826 148.748 13.7275 148.588 13.5723C148.35 13.4948 148.111 13.4172 148.031 13.4172H147.314C147.075 13.4172 146.836 13.1845 146.836 12.9518V10.392C146.836 10.1593 147.075 9.92663 147.314 9.92663H147.872C148.19 9.92663 148.429 9.84906 148.588 9.69393C148.748 9.53879 148.827 9.30609 148.827 9.07338C148.827 8.68554 148.668 8.53041 148.588 8.45284C148.429 8.37527 148.19 8.2977 148.031 8.2977C147.394 8.45284 147.155 8.5304 146.996 8.68554ZM154.243 18.1489V5.58281C154.243 5.35011 154.482 5.11741 154.721 5.11741H157.827C158.066 5.11741 158.305 5.35011 158.305 5.58281V12.2537L163.163 5.35011C163.243 5.19497 163.402 5.11741 163.561 5.11741H166.667C166.906 5.11741 167.145 5.35011 167.145 5.58281V18.1489C167.145 18.3816 166.906 18.6143 166.667 18.6143H163.561C163.322 18.6143 163.083 18.3816 163.083 18.1489V11.4004L158.225 18.304C158.146 18.4591 157.986 18.5367 157.827 18.5367H154.721C154.402 18.5367 154.243 18.3816 154.243 18.1489ZM169.136 18.1489V5.58281C169.136 5.35011 169.375 5.11741 169.614 5.11741H172.72C172.959 5.11741 173.198 5.35011 173.198 5.58281V9.7715H177.101V5.58281C177.101 5.35011 177.34 5.11741 177.578 5.11741H180.685C180.923 5.11741 181.162 5.35011 181.162 5.58281V18.1489C181.162 18.3816 180.923 18.6143 180.685 18.6143H177.578C177.34 18.6143 177.101 18.3816 177.101 18.1489V13.3396H173.198V18.1489C173.198 18.3816 172.959 18.6143 172.72 18.6143H169.614C169.296 18.5367 169.136 18.3816 169.136 18.1489Z" fill="#E30613"/>
<path d="M55.1566 17.9168C57.3494 17.9168 59.2048 19.7279 59.2048 21.8683C59.2048 24.0087 57.3494 25.8198 55.1566 25.8198C52.9639 25.8198 51.1084 24.0087 51.1084 21.8683C51.1084 19.7279 52.9639 17.9168 55.1566 17.9168ZM31.2048 74.8839C29.5181 74.8839 28 73.5667 28 71.9203C28 70.2738 29.3494 68.792 31.2048 68.792C32.8916 68.792 34.4096 70.1092 34.4096 71.9203C34.4096 73.5667 32.8916 74.8839 31.2048 74.8839ZM37.7831 15.1179C41.6626 15.1179 44.8675 11.9896 44.8675 8.36746C44.8675 4.58063 41.6626 1.61703 37.7831 1.61703C33.9036 1.61703 30.6988 4.74528 30.6988 8.36746C30.8675 12.1543 33.9036 15.1179 37.7831 15.1179ZM37.7831 5.73314C39.3012 5.73314 40.4819 6.88566 40.4819 8.36746C40.4819 9.84926 39.3012 11.0018 37.7831 11.0018C36.2651 11.0018 35.0843 9.84926 35.0843 8.36746C35.0843 6.88566 36.2651 5.73314 37.7831 5.73314ZM66.1205 35.8631H34.0723C32.7229 35.8631 31.7108 36.851 31.7108 38.1681C31.7108 39.4853 32.7229 40.4732 34.0723 40.4732H66.1205V40.9671V42.4489V45.0832H36.7711C35.4217 45.0832 34.4096 46.0711 34.4096 47.3882C34.4096 48.7054 35.4217 49.6933 36.7711 49.6933H66.1205V50.0225C66.1205 51.5043 66.1205 52.9861 66.1205 54.4679H65.6145H31.8795L18.8916 17.2583C18.7229 16.5997 18.0482 16.2704 17.3735 16.2704H2.36145C1.01205 15.9411 0 16.929 0 18.2461C0 19.5633 1.01205 20.5512 2.36145 20.5512H15.012L26.988 55.1265C26.4819 55.2912 25.9759 55.7851 25.8072 56.279L22.2651 64.8406C22.0964 65.4991 22.0964 65.9931 22.4337 66.6517C22.7711 67.1456 23.4458 67.4749 23.9518 67.4749H25.8072C24.6265 68.6274 23.9518 70.2738 23.9518 72.0849C23.9518 75.8717 27.1566 79 31.0361 79C34.9157 79 38.1205 75.8717 38.1205 72.0849C38.1205 70.2738 37.4458 68.792 36.2651 67.4749H55.1566C53.9759 68.6274 53.3012 70.2738 53.3012 72.0849C53.3012 75.8717 56.506 79 60.3855 79C64.2651 79 67.4699 75.8717 67.4699 72.0849C67.4699 70.2738 66.7952 68.792 65.6145 67.4749H67.8072C68.8193 67.4749 69.8313 66.6516 69.8313 65.4991C69.8313 64.5113 68.988 63.5234 67.8072 63.5234H26.988L29.1807 58.5841C29.5181 58.7487 29.6867 58.7487 30.0241 58.7487H67.8072C68.8193 58.7487 70 57.9255 70 56.9376V28.6187C70 27.4662 68.988 25.9844 67.3012 25.9844H62.4096C63.0843 24.8319 63.5904 23.3501 63.5904 21.8683C63.5904 17.4229 59.8795 13.6361 55.1566 13.6361C50.4337 13.6361 46.7229 17.2583 46.7229 21.8683C46.7229 23.3501 47.0602 24.8319 47.9036 25.9844H41.8313L55.494 3.26347C56.1687 2.27561 55.6627 0.958449 54.6506 0.299871C53.6386 -0.358708 52.2892 0.135226 51.6145 1.12309L36.7711 25.9844H29.012C27.6627 25.9844 26.6506 26.9723 26.6506 28.2895C26.6506 29.6066 27.6627 30.5945 29.012 30.5945H66.1205V32.7349V34.3813V35.8631ZM60.5542 74.8839C58.8675 74.8839 57.3494 73.5667 57.3494 71.9203C57.3494 70.2738 58.6988 68.792 60.5542 68.792C62.241 68.792 63.759 70.1092 63.759 71.9203C63.759 73.5667 62.4096 74.8839 60.5542 74.8839Z" fill="#E30613"/>
<path fill-rule="evenodd" clip-rule="evenodd" d="M89.7961 63.2055C89.7961 63.0503 89.7961 62.8176 89.7164 62.5849C89.6368 62.3522 89.5571 62.1195 89.3978 61.9644C89.2386 61.8092 89.0793 61.5765 88.8404 61.499C88.6014 61.3438 88.2829 61.2662 87.8846 61.2662H85.0175V65.1447H87.8846C88.5218 65.1447 88.9997 64.912 89.3182 64.5241C89.6368 64.2138 89.7961 63.7484 89.7961 63.2055ZM106.362 61.7317H109.229C109.468 61.7317 109.707 61.9644 109.707 62.1971V74.7631C109.707 74.9958 109.468 75.2285 109.229 75.2285H106.362C106.123 75.2285 105.884 74.9958 105.884 74.7631V74.1426C105.247 74.6855 104.61 75.0734 103.973 75.2285C103.096 75.5388 102.3 75.5388 101.981 75.5388C100.15 75.5388 98.3975 74.7631 97.1232 73.4444C95.9286 72.2034 95.2118 70.5744 95.2118 68.4801C95.2118 66.3857 95.9286 64.6017 97.1232 63.283C98.3975 61.9644 100.07 61.1887 102.061 61.1887C103.017 61.1887 103.973 61.4214 104.689 61.8092C105.088 62.0419 105.486 62.2746 105.804 62.6625V62.1195C105.884 61.8868 106.123 61.7317 106.362 61.7317ZM104.928 65.9979C104.371 65.4549 103.574 65.0671 102.619 65.0671C101.663 65.0671 100.787 65.4549 100.229 66.0755C99.5921 66.696 99.2736 67.5493 99.2736 68.6352C99.2736 69.566 99.5921 70.4193 100.229 71.0398C100.787 71.5828 101.663 71.9707 102.619 71.9707C103.574 71.9707 104.371 71.6604 105.008 71.0398C105.565 70.4193 105.884 69.566 105.884 68.5577C105.804 67.4717 105.486 66.5409 104.928 65.9979ZM119.821 71.6604C120.299 71.5052 120.857 71.1174 121.175 70.4969C121.255 70.3417 121.414 70.2642 121.574 70.2642H125.078C125.158 70.2642 125.157 70.2642 125.237 70.2642C125.476 70.3417 125.635 70.5744 125.476 70.8071C124.919 72.2809 124.042 73.522 122.848 74.3753C121.733 75.1509 120.299 75.6164 118.627 75.6164C116.317 75.6164 114.485 74.8407 113.291 73.5996C111.777 72.2034 111.061 70.1866 111.061 68.325C111.061 65.2222 113.37 61.2662 118.547 61.2662C120.22 61.2662 121.733 61.7317 122.927 62.5849C124.122 63.4382 124.998 64.6792 125.476 66.153C125.476 66.2306 125.476 66.2306 125.476 66.3082C125.476 66.5409 125.237 66.7736 124.998 66.7736H121.494C121.335 66.7736 121.175 66.696 121.096 66.5409C120.857 66.0755 120.459 65.6876 120.06 65.4549C119.582 65.2222 119.105 65.0671 118.467 65.0671C117.432 65.0671 116.556 65.4549 115.999 65.9979C115.361 66.6185 115.043 67.4717 115.043 68.4025C115.043 69.4109 115.361 70.2642 115.999 70.8847C116.556 71.5052 117.432 71.8155 118.467 71.8155C118.866 71.8155 119.344 71.8155 119.821 71.6604ZM127.149 74.7631V62.1195C127.149 61.8868 127.387 61.6541 127.626 61.6541H138.617C138.856 61.6541 139.095 61.8868 139.095 62.1195V74.7631C139.095 74.9958 138.856 75.2285 138.617 75.2285H135.511C135.272 75.2285 135.033 74.9958 135.033 74.7631V65.2998H131.131V74.7631C131.131 74.9958 130.892 75.2285 130.653 75.2285H127.547C127.308 75.1509 127.149 74.9958 127.149 74.7631ZM144.67 79.4172H141.564C141.325 79.4172 141.086 79.1845 141.086 78.9518V62.1195C141.086 61.8868 141.325 61.6541 141.564 61.6541H144.431C144.67 61.6541 144.909 61.8868 144.909 62.1195V62.5849C145.228 62.2746 145.626 62.0419 145.944 61.8868C146.98 61.4214 148.015 61.2662 148.652 61.2662C150.564 61.2662 152.395 62.0419 153.67 63.3606C154.864 64.6017 155.581 66.3082 155.581 68.4801C155.581 70.4193 154.864 72.2809 153.59 73.5996C152.395 74.8407 150.723 75.6164 148.652 75.6164C148.095 75.6164 147.378 75.5388 146.581 75.2285C146.104 75.0734 145.626 74.7631 145.148 74.3753V78.8742C145.148 79.1845 144.909 79.4172 144.67 79.4172ZM151.519 68.4025C151.519 66.9287 150.564 65.0671 148.254 65.0671C147.298 65.0671 146.422 65.4549 145.865 65.9979C145.307 66.6185 144.909 67.4717 144.909 68.4801C144.909 69.566 145.228 70.3417 145.785 70.9623C146.343 71.5828 147.219 71.8931 148.095 71.8931C149.05 71.8931 149.926 71.5052 150.484 70.9623C151.201 70.2642 151.519 69.4109 151.519 68.4025ZM158.448 63.3606C159.723 62.1195 161.554 61.2662 163.625 61.2662C165.696 61.2662 167.528 62.0419 168.802 63.3606C170.156 64.6792 170.952 66.4633 170.952 68.4801C170.952 70.4193 170.156 72.2809 168.802 73.522C167.528 74.7631 165.696 75.6164 163.625 75.6164C161.554 75.6164 159.723 74.8407 158.448 73.522C157.094 72.2034 156.298 70.4193 156.298 68.4801C156.298 66.4633 157.094 64.6792 158.448 63.3606ZM165.935 65.9979C165.377 65.3774 164.581 65.0671 163.625 65.0671C162.669 65.0671 161.873 65.4549 161.315 65.9979C160.678 66.6185 160.36 67.5493 160.36 68.4801C160.36 69.4109 160.678 70.2642 161.315 70.8847C161.873 71.4277 162.669 71.8155 163.625 71.8155C164.581 71.8155 165.377 71.4277 165.935 70.8847C166.572 70.2642 166.89 69.4109 166.89 68.4801C166.89 67.5493 166.572 66.6185 165.935 65.9979ZM178.12 61.7317H180.908C181.067 61.7317 181.226 61.8092 181.306 61.9644L185.925 71.5828H187.199C187.438 71.5828 187.677 71.8155 187.677 72.0482V77.9434C187.677 78.1761 187.438 78.4088 187.199 78.4088H184.173C183.934 78.4088 183.695 78.1761 183.695 77.9434V75.2285H175.333V77.9434C175.333 78.1761 175.094 78.4088 174.855 78.4088H171.828C171.589 78.4088 171.35 78.1761 171.35 77.9434V72.0482C171.35 71.8155 171.589 71.5828 171.828 71.5828H173.103L177.722 61.9644C177.722 61.8092 177.881 61.7317 178.12 61.7317ZM179.474 67.3166L177.563 71.5828H181.385L179.474 67.3166ZM199.146 61.7317H202.013C202.252 61.7317 202.491 61.9644 202.491 62.1971V74.7631C202.491 74.9958 202.252 75.2285 202.013 75.2285H199.146C198.907 75.2285 198.668 74.9958 198.668 74.7631V74.1426C198.031 74.6855 197.394 75.0734 196.756 75.2285C195.88 75.5388 195.084 75.5388 194.765 75.5388C192.934 75.5388 191.181 74.7631 189.907 73.4444C188.713 72.2034 187.996 70.5744 187.996 68.4801C187.996 66.3857 188.712 64.6017 189.987 63.283C191.261 61.9644 192.934 61.1887 194.925 61.1887C195.96 61.1887 196.836 61.4214 197.633 61.8092C198.031 62.0419 198.429 62.2746 198.747 62.6625V62.1195C198.668 61.8868 198.907 61.7317 199.146 61.7317ZM197.712 65.9979C197.155 65.4549 196.358 65.0671 195.403 65.0671C194.447 65.0671 193.571 65.4549 193.013 66.0755C192.456 66.696 192.058 67.5493 192.058 68.6352C192.058 69.566 192.376 70.4193 193.013 71.0398C193.571 71.5828 194.447 71.9707 195.403 71.9707C196.358 71.9707 197.155 71.6604 197.712 71.0398C198.27 70.4193 198.588 69.566 198.588 68.5577C198.668 67.4717 198.27 66.5409 197.712 65.9979ZM215.074 75.1509H211.968C211.729 75.1509 211.49 74.9182 211.49 74.6855V70.109L208.145 74.9182C208.066 75.0734 207.906 75.1509 207.747 75.1509H204.084C204.004 75.1509 203.924 75.1509 203.845 75.0734C203.606 74.9182 203.606 74.6855 203.765 74.4528L208.305 68.0922L204.084 62.3522C204.004 62.2746 204.004 62.1971 204.004 62.0419C204.004 61.8092 204.243 61.5765 204.482 61.5765H208.145C208.305 61.5765 208.464 61.6541 208.544 61.8092L211.65 66.3082V62.0419C211.65 61.8092 211.889 61.5765 212.128 61.5765H215.234C215.473 61.5765 215.711 61.8092 215.711 62.0419V66.3082L218.738 61.8092C218.818 61.6541 218.977 61.5765 219.136 61.5765H222.8C222.879 61.5765 222.959 61.5765 223.039 61.6541C223.277 61.8092 223.278 62.0419 223.118 62.2746L218.897 68.0147L223.437 74.2977C223.516 74.3753 223.516 74.4528 223.516 74.5304C223.516 74.7631 223.277 74.9958 223.039 74.9958H219.375C219.216 74.9958 219.056 74.9182 218.977 74.7631L215.632 69.9539V74.7631C215.552 74.9958 215.313 75.1509 215.074 75.1509ZM85.0175 74.6855C85.0175 74.9182 85.0175 74.9958 84.9379 75.0734C84.8582 75.1509 84.6989 75.1509 84.3804 75.1509H80.6371C80.2389 75.1509 80 74.9958 80 74.608V58.7841C80 58.3187 80.0796 57.9308 80.3186 57.543C80.5575 57.2327 81.0354 57 81.7522 57H88.5218C89.5572 57 90.5129 57.1551 91.3093 57.4654C92.1057 57.7757 92.8225 58.1635 93.38 58.7065C93.9375 59.2495 94.3357 59.87 94.6543 60.5681C94.9729 61.2662 95.0525 62.0419 95.0525 62.8952C95.0525 63.2055 95.0525 63.5157 94.9728 63.9036C94.8932 64.2914 94.8136 64.7568 94.6543 65.2222C94.495 65.6876 94.2561 66.153 93.9375 66.6185C93.6189 67.0839 93.2207 67.4717 92.6632 67.8595C92.1057 68.2474 91.4686 68.4801 90.6721 68.7128C89.8757 68.9455 88.92 69.0231 87.805 69.0231H85.1768V74.6855H85.0175Z" fill="#E30613"/>
<path fill-rule="evenodd" clip-rule="evenodd" d="M95.9286 45.5304C95.9286 45.7631 95.9286 45.8407 95.8489 45.9182C95.7693 45.9958 95.61 45.9958 95.2914 45.9958H91.5482C91.15 45.9958 90.9111 45.8407 90.9111 45.4528V32.1887H85.0175V45.5304C85.0175 45.7631 85.0175 45.8407 84.9379 45.9182C84.8582 45.9958 84.6989 45.9958 84.3804 45.9958H80.6371C80.2389 45.9958 80 45.8407 80 45.4528V29.7065C80 29.1635 80.0797 28.6981 80.3186 28.3878C80.5575 28.0776 81.0354 28 81.7521 28H94.2561C94.9729 28 95.4507 28.1551 95.6896 28.3878C95.9286 28.6981 96.0082 29.086 96.0082 29.7065V45.5304H95.9286ZM99.4329 34.283C100.707 33.0419 102.539 32.2662 104.61 32.2662C106.68 32.2662 108.512 33.0419 109.786 34.283C111.14 35.6017 111.937 37.3857 111.937 39.4025C111.937 41.3417 111.14 43.2034 109.786 44.4444C108.512 45.6855 106.68 46.4612 104.61 46.4612C102.539 46.4612 100.707 45.6855 99.4329 44.4444C98.0789 43.1258 97.2825 41.3417 97.2825 39.4025C97.3621 37.3857 98.1586 35.6017 99.4329 34.283ZM106.999 36.9203C106.441 36.3774 105.645 35.9895 104.689 35.9895C103.734 35.9895 102.937 36.3774 102.38 36.9203C101.743 37.5409 101.424 38.4717 101.424 39.4025C101.424 40.3333 101.743 41.1866 102.38 41.8071C102.937 42.3501 103.734 42.7379 104.689 42.7379C105.645 42.7379 106.441 42.3501 106.999 41.8071C107.636 41.1866 107.955 40.3333 107.955 39.4025C107.955 38.4717 107.636 37.5409 106.999 36.9203ZM121.494 42.5828C121.972 42.4277 122.529 42.0398 122.928 41.4193C123.007 41.2642 123.166 41.1866 123.326 41.1866H126.83C126.91 41.1866 126.91 41.1866 126.989 41.1866C127.228 41.2642 127.388 41.4969 127.308 41.7296C126.75 43.2034 125.874 44.4444 124.68 45.2977C123.565 46.0734 122.131 46.5388 120.459 46.5388C118.149 46.5388 116.317 45.7631 115.123 44.522C113.609 43.1258 112.893 41.109 112.893 39.2474C112.893 36.1447 115.202 32.1887 120.379 32.1887C122.051 32.1887 123.565 32.6541 124.759 33.5073C125.954 34.3606 126.83 35.6017 127.308 37.0755C127.308 37.153 127.308 37.153 127.308 37.2306C127.308 37.4633 127.069 37.696 126.83 37.696H123.326C123.166 37.696 123.007 37.6184 122.928 37.4633C122.689 36.9979 122.29 36.6101 121.892 36.3774C121.414 36.1447 120.857 35.9895 120.299 35.9895C119.264 35.9895 118.388 36.3774 117.83 36.9203C117.193 37.5409 116.875 38.3941 116.875 39.3249C116.875 40.3333 117.193 41.1866 117.83 41.8071C118.388 42.4277 119.264 42.7379 120.299 42.7379C120.459 42.7379 121.016 42.7379 121.494 42.5828ZM127.706 35.7568V33.0419C127.706 32.8092 127.945 32.5765 128.184 32.5765H137.502C137.741 32.5765 137.98 32.8092 137.98 33.0419V35.7568C137.98 35.9895 137.741 36.2222 137.502 36.2222H134.874V45.6855C134.874 45.9182 134.635 46.1509 134.396 46.1509H131.29C131.051 46.1509 130.812 45.9182 130.812 45.6855V36.2222H128.184C127.945 36.2222 127.706 35.9895 127.706 35.7568ZM140.529 34.283C141.803 33.0419 143.635 32.2662 145.705 32.2662C147.776 32.2662 149.608 33.0419 150.882 34.283C152.236 35.6017 153.032 37.3857 153.032 39.4025C153.032 41.3417 152.236 43.2034 150.882 44.4444C149.608 45.6855 147.776 46.4612 145.705 46.4612C143.635 46.4612 141.803 45.6855 140.529 44.4444C139.175 43.1258 138.378 41.3417 138.378 39.4025C138.378 37.3857 139.175 35.6017 140.529 34.283ZM148.015 36.9203C147.458 36.3774 146.661 35.9895 145.705 35.9895C144.75 35.9895 143.953 36.3774 143.396 36.9203C142.759 37.5409 142.44 38.4717 142.44 39.4025C142.44 40.3333 142.759 41.1866 143.396 41.8071C143.953 42.3501 144.75 42.7379 145.705 42.7379C146.661 42.7379 147.458 42.3501 148.015 41.8071C148.652 41.1866 148.971 40.3333 148.971 39.4025C148.971 38.4717 148.652 37.5409 148.015 36.9203ZM159.324 32.6541H164.979C165.218 32.6541 165.457 32.8868 165.457 33.1195V45.6855C165.457 45.9182 165.218 46.1509 164.979 46.1509H161.873C161.634 46.1509 161.395 45.9182 161.395 45.6855V42.195L158.448 45.9958C158.369 46.1509 158.209 46.2285 158.05 46.2285H154.147C154.068 46.2285 153.909 46.2285 153.829 46.1509C153.67 45.9958 153.59 45.6855 153.749 45.5304L157.174 41.652C156.378 41.4193 155.74 40.9539 155.183 40.4109C154.466 39.6352 154.147 38.5493 154.147 37.4633C154.147 36.2222 154.625 34.9811 155.661 34.1279C156.537 33.1195 157.731 32.6541 159.324 32.6541ZM159.404 38.4717H161.315V36.2222H159.404C159.006 36.2222 158.687 36.2998 158.448 36.5325C158.209 36.7652 158.13 37.0755 158.13 37.4633C158.13 37.7736 158.289 38.0839 158.448 38.239C158.687 38.3941 159.085 38.4717 159.404 38.4717ZM167.448 45.6855V33.1195C167.448 32.8868 167.687 32.6541 167.926 32.6541H171.032C171.271 32.6541 171.51 32.8868 171.51 33.1195V37.3082H175.412V33.1195C175.412 32.8868 175.651 32.6541 175.89 32.6541H178.996C179.235 32.6541 179.474 32.8868 179.474 33.1195V45.6855C179.474 45.9182 179.235 46.1509 178.996 46.1509H175.81C175.571 46.1509 175.332 45.9182 175.332 45.6855V40.8763H171.43V45.6855C171.43 45.9182 171.191 46.1509 170.952 46.1509H167.846C167.687 46.0734 167.448 45.9182 167.448 45.6855ZM181.465 45.6855V33.1195C181.465 32.8868 181.704 32.6541 181.943 32.6541H185.049C185.288 32.6541 185.527 32.8868 185.527 33.1195V37.3082H189.429V33.1195C189.429 32.8868 189.668 32.6541 189.907 32.6541H193.013C193.252 32.6541 193.491 32.8868 193.491 33.1195V45.6855C193.491 45.9182 193.252 46.1509 193.013 46.1509H189.907C189.668 46.1509 189.429 45.9182 189.429 45.6855V40.8763H185.527V45.6855C185.527 45.9182 185.288 46.1509 185.049 46.1509H181.943C181.624 46.0734 181.465 45.9182 181.465 45.6855ZM195.482 45.6855V33.1195C195.482 32.8868 195.641 32.6541 195.96 32.6541H199.066C199.305 32.6541 199.544 32.8868 199.544 33.1195V37.0755H201.854C203.367 37.0755 204.561 37.5409 205.278 38.3166C206.154 39.1698 206.632 40.4109 206.632 41.652C206.632 43.0482 206.154 44.1342 205.278 44.9099C204.402 45.6855 203.208 46.1509 201.774 46.1509H195.88C195.641 46.0734 195.482 45.9182 195.482 45.6855ZM201.455 40.6436H199.464V42.5828H201.455C201.535 42.5828 201.854 42.5828 202.092 42.4277C202.331 42.3501 202.57 42.1174 202.57 41.5744C202.57 41.3417 202.491 41.0314 202.331 40.8763C202.092 40.7212 201.854 40.6436 201.455 40.6436ZM210.614 46.0734H207.508C207.269 46.0734 207.03 45.8407 207.03 45.608V33.1195C207.03 32.8868 207.269 32.6541 207.508 32.6541H210.614C210.853 32.6541 211.092 32.8868 211.092 33.1195V45.6855C211.092 45.9182 210.853 46.0734 210.614 46.0734ZM216.269 46.0734H212.446C212.366 46.0734 212.287 46.0734 212.207 45.9958C211.968 45.8407 211.968 45.608 212.048 45.3753L216.269 39.1698L212.446 33.3522C212.366 33.2746 212.366 33.1971 212.366 33.0419C212.366 32.8092 212.605 32.5765 212.844 32.5765H216.428C216.587 32.5765 216.747 32.6541 216.826 32.8092L218.897 35.9895L220.968 32.8092C221.048 32.6541 221.207 32.5765 221.366 32.5765H224.95C225.03 32.5765 225.109 32.5765 225.189 32.6541C225.428 32.8092 225.428 33.0419 225.348 33.2746L221.446 39.1698L225.746 45.3753C225.826 45.4528 225.826 45.5304 225.826 45.6855C225.826 45.9182 225.587 46.1509 225.348 46.1509H221.525C221.366 46.1509 221.207 46.0734 221.127 45.9182L218.897 42.4277L216.667 45.8407C216.587 45.9958 216.428 46.0734 216.269 46.0734Z" fill="#E30613"/>
</svg>
